PathFileType	4	(X/Y/Z)	/Users/itak/Documents/Research/Walk-IL/dataset/trc/00080_00006.trc
DataRate	CameraRate	NumFrames	NumMarkers	Units	OrigDataRate	OrigDataStartFrame	OrigNumFrames
100.000000	100.000000	4	53	mm	100.000000	136	546
Frame#	Time	RPSI			LPSI			L3			STRN			T10			C7			CLAV			RBAK			LBAK			LSHO			LUPA			LAEL			LAOL			LWTS			LWPS			LFRA			LIFD			LHPS			LHTS			RSHO			RUPA			RAEL			RAOL			RWTS			RWPS			RFRA			RIFD			RHTS			RHPS			RBHD			LFHD			RFHD			LBHD			LHIP			RHIP			RASI			LASI			LKNE			LTHI			LANK			LTIP			LTOE			LMT1			LMT5			LHEE			RKNE			RTHI			RANK			RTIP			RTOE			RMT1			RMT5			RHEE			
		X1	Y1	Z1	X2	Y2	Z2	X3	Y3	Z3	X4	Y4	Z4	X5	Y5	Z5	X6	Y6	Z6	X7	Y7	Z7	X8	Y8	Z8	X9	Y9	Z9	X10	Y10	Z10	X11	Y11	Z11	X12	Y12	Z12	X13	Y13	Z13	X14	Y14	Z14	X15	Y15	Z15	X16	Y16	Z16	X17	Y17	Z17	X18	Y18	Z18	X19	Y19	Z19	X20	Y20	Z20	X21	Y21	Z21	X22	Y22	Z22	X23	Y23	Z23	X24	Y24	Z24	X25	Y25	Z25	X26	Y26	Z26	X27	Y27	Z27	X28	Y28	Z28	X29	Y29	Z29	X30	Y30	Z30	X31	Y31	Z31	X32	Y32	Z32	X33	Y33	Z33	X34	Y34	Z34	X35	Y35	Z35	X36	Y36	Z36	X37	Y37	Z37	X38	Y38	Z38	X39	Y39	Z39	X40	Y40	Z40	X41	Y41	Z41	X42	Y42	Z42	X43	Y43	Z43	X44	Y44	Z44	X45	Y45	Z45	X46	Y46	Z46	X47	Y47	Z47	X48	Y48	Z48	X49	Y49	Z49	X50	Y50	Z50	X51	Y51	Z51	X52	Y52	Z52	X53	Y53	Z53	

137	1.36	-1317.100830078125	1032.847412109375	476.8321533203125	-1327.577392578125	1026.03662109375	301.5780029296875	-1318.678833007812	1085.591674804688	380.73779296875	-1068.253173828125	1282.85107421875	386.2132263183594	-1335.458374023438	1219.328247070312	372.6800537109375	-1274.565551757812	1486.516723632812	373.8947448730469	-1096.435546875	1397.720092773438	384.3544616699219	-1341.430541992188	1347.691284179688	444.1314086914062	-1292.274291992188	1449.82568359375	271.5815734863281	-1185.633666992188	1453.81689453125	204.1830749511719	-1201.078247070312	1328.421752929688	124.7709884643555	-1185.665161132812	1114.052490234375	101.8008880615234	-1251.739013671875	1099.182006835938	184.7772827148438	-1098.828979492188	872.9169921875	162.5822296142578	-1156.942749023438	862.8577270507812	102.7135009765625	-1166.839965820312	1004.703857421875	93.15247344970703	-1091.620483398438	685.3373413085938	177.5123443603516	-1125.904418945312	782.5689697265625	106.2443084716797	-1076.742431640625	789.8590698242188	157.3038635253906	-1221.36083984375	1448.62158203125	551.700439453125	-1238.86376953125	1380.268798828125	613.1595458984375	-1283.187866210938	1118.347412109375	640.345458984375	-1256.82666015625	1095.604248046875	546.5184936523438	-1134.377563476562	867.662353515625	615.1900024414062	-1209.938842773438	850.644775390625	657.2024536132812	-1272.151489257812	1037.062622070312	648.781005859375	-1123.49658203125	680.5489501953125	594.8756103515625	-1107.855102539062	768.69677734375	615.2314453125	-1169.52685546875	762.9209594726562	661.69384765625	-1236.970092773438	1668.418579101562	322.4309387207031	-1056.495361328125	1693.772094726562	438.270263671875	-1060.94140625	1695.985473632812	312.4137573242188	-1223.613647460938	1658.905517578125	459.6447448730469	-1224.755737304688	961.7637329101562	210.4246368408203	-1248.080932617188	962.0665283203125	553.6929321289062	-1124.255615234375	978.2721557617188	529.7700805664062	-1110.769775390625	969.6381225585938	260.0742492675781	-1152.733032226562	499.1159362792969	249.6202697753906	-1182.276489257812	639.6180419921875	214.8542175292969	-1312.84619140625	54.79594802856445	218.5053863525391	-1240.4833984375	264.57470703125	218.1679077148438	-1107.406982421875	46.80423355102539	207.0083160400391	-1152.339965820312	43.61827087402344	264.9884338378906	-1213.822143554688	46.14967727661133	171.4836730957031	-1359.87353515625	48.06999206542969	298.5981140136719	-1167.925048828125	515.1791381835938	516.28173828125	-1161.109008789062	784.1659545898438	554.97509765625	-1302.605346679688	43.75678253173828	500.9510192871094	-1196.153198242188	391.4043273925781	520.23046875	-1087.266967773438	50.69956970214844	476.3917236328125	-1143.52001953125	52.00712585449219	432.4344787597656	-1181.516357421875	51.7138557434082	522.3551025390625	-1346.0341796875	42.98591232299805	443.2474060058594	
138	1.37	-1315.972778320312	1032.681640625	478.10595703125	-1326.284057617188	1025.408569335938	302.7781066894531	-1317.371459960938	1085.441162109375	382.038330078125	-1066.72802734375	1282.466552734375	387.9039001464844	-1334.013549804688	1219.213623046875	374.0971374511719	-1272.805419921875	1486.30419921875	375.572509765625	-1094.838500976562	1397.33251953125	386.0596618652344	-1339.81689453125	1347.524658203125	445.6165466308594	-1290.574584960938	1449.753295898438	273.2395324707031	-1183.909790039062	1453.669067382812	205.9048004150391	-1199.64013671875	1328.486206054688	126.4169998168945	-1184.8154296875	1114.214599609375	102.8383865356445	-1250.67919921875	1099.254760742188	185.9291839599609	-1097.826171875	873.04052734375	162.97607421875	-1156.191772460938	862.9886474609375	103.3576583862305	-1166.086303710938	1004.847229003906	93.96870422363281	-1089.998657226562	685.3612060546875	178.0259857177734	-1125.123291015625	782.689208984375	106.7196426391602	-1075.808471679688	789.961181640625	157.579345703125	-1219.78466796875	1448.275024414062	553.3727416992188	-1237.472290039062	1380.076416015625	614.8422241210938	-1282.238891601562	1118.153686523438	642.1013793945312	-1255.958251953125	1095.457275390625	548.2833251953125	-1133.11767578125	867.5752563476562	616.6953125	-1208.709716796875	850.4119873046875	658.7059936523438	-1271.210693359375	1036.771362304688	650.51416015625	-1122.0419921875	680.5014038085938	596.114013671875	-1106.54833984375	768.61328125	616.6319580078125	-1168.176025390625	762.7180786132812	663.07421875	-1235.4140625	1668.080322265625	324.6369323730469	-1054.192016601562	1693.37060546875	439.3616027832031	-1059.425903320312	1695.493408203125	313.5693969726562	-1221.234375	1658.613525390625	461.8158264160156	-1223.177978515625	961.29541015625	211.7006378173828	-1247.076904296875	961.9318237304688	555.2020874023438	-1123.220703125	978.1404418945312	531.4737548828125	-1109.367919921875	969.3568725585938	261.7609252929688	-1148.476196289062	498.3273315429688	251.1297149658203	-1178.520385742188	639.0238647460938	216.0053253173828	-1312.74462890625	55.17071914672852	218.4803466796875	-1238.233276367188	264.3370971679688	218.6473693847656	-1107.355712890625	46.75816345214844	206.9670257568359	-1152.235229492188	43.57902908325195	264.9421997070312	-1213.7021484375	46.11062622070312	171.4629516601562	-1359.732543945312	48.6003303527832	298.6166381835938	-1167.592529296875	514.991455078125	517.3067016601562	-1159.931640625	783.9264526367188	556.2958984375	-1302.682495117188	43.50708770751953	501.3001403808594	-1195.9609375	391.1281433105469	521.07080078125	-1087.240478515625	50.48952484130859	476.2715759277344	-1143.744018554688	51.97835540771484	432.5381469726562	-1181.472290039062	51.58944320678711	522.4185791015625	-1346.159545898438	42.89408493041992	443.6066284179688	
139	1.38	-1314.89306640625	1032.508911132812	479.3370056152344	-1325.031860351562	1024.65087890625	303.9537963867188	-1316.10205078125	1085.252197265625	383.3267822265625	-1065.171752929688	1282.00830078125	389.5894165039062	-1332.589477539062	1219.093872070312	375.5516052246094	-1270.981567382812	1486.0634765625	377.3016967773438	-1093.183715820312	1396.890380859375	387.7745971679688	-1338.159790039062	1347.34765625	447.1725769042969	-1288.839965820312	1449.663940429688	274.9508972167969	-1182.158081054688	1453.482299804688	207.6606903076172	-1198.215454101562	1328.515502929688	128.099365234375	-1183.990356445312	1114.347290039062	103.8738250732422	-1249.631713867188	1099.2919921875	187.0882110595703	-1096.803833007812	873.142822265625	163.3404541015625	-1155.444702148438	863.0927124023438	104.0041656494141	-1165.346557617188	1004.960998535156	94.77862548828125	-1088.042236328125	685.3154296875	178.6811828613281	-1124.316650390625	782.7816772460938	107.2028198242188	-1074.86083984375	790.0526123046875	157.8207397460938	-1218.107543945312	1447.880981445312	555.0833129882812	-1235.972900390625	1379.833618164062	616.5624389648438	-1281.2138671875	1117.901733398438	643.925048828125	-1255.005737304688	1095.24462890625	550.0977172851562	-1131.750366210938	867.4339599609375	618.2054443359375	-1207.353149414062	850.1101684570312	660.2437133789062	-1270.163696289062	1036.418090820312	652.2978515625	-1120.457397460938	680.422607421875	597.3671264648438	-1105.1083984375	768.4988403320312	618.0404052734375	-1166.681396484375	762.4367065429688	664.4642333984375	-1233.790161132812	1667.675903320312	326.8877563476562	-1051.81884765625	1692.93603515625	440.4618225097656	-1057.871459960938	1694.947387695312	314.7394104003906	-1218.779541015625	1658.265014648438	464.0359497070312	-1221.650268554688	960.7478637695312	212.91943359375	-1246.125732421875	961.7644653320312	556.65234375	-1122.239013671875	977.9763793945312	533.1915893554688	-1108.010498046875	969.0181884765625	263.4608154296875	-1143.33935546875	497.4248962402344	252.7216339111328	-1174.253295898438	638.3753662109375	217.2316741943359	-1312.580688476562	55.80940246582031	218.4471893310547	-1235.534912109375	264.1650085449219	219.1827087402344	-1107.299194335938	46.70272064208984	206.9272613525391	-1152.107299804688	43.54333114624023	264.8716125488281	-1213.539916992188	46.11764907836914	171.4459686279297	-1359.520141601562	49.50827407836914	298.6359558105469	-1167.274291992188	514.7950439453125	518.456298828125	-1158.810180664062	783.7044677734375	557.6558837890625	-1302.755493164062	43.27560806274414	501.6685180664062	-1195.771484375	390.8424072265625	521.9949951171875	-1087.189086914062	50.23847198486328	476.2143249511719	-1143.97900390625	51.95343780517578	432.7404174804688	-1181.411376953125	51.43500900268555	522.5398559570312	-1346.274291992188	42.81032562255859	443.9662780761719	
140	1.39	-1313.853271484375	1032.326416015625	480.5182189941406	-1323.824096679688	1023.77490234375	305.1026916503906	-1314.874145507812	1085.034057617188	384.5964965820312	-1063.58740234375	1281.479248046875	391.25341796875	-1331.18505859375	1218.972534179688	377.0322875976562	-1269.095825195312	1485.804443359375	379.0762634277344	-1091.471801757812	1396.39404296875	389.4869995117188	-1336.456176757812	1347.163330078125	448.7930297851562	-1287.074096679688	1449.56298828125	276.7096252441406	-1180.384643554688	1453.259399414062	209.4392242431641	-1196.807495117188	1328.507568359375	129.8065490722656	-1183.185668945312	1114.446655273438	104.9046936035156	-1248.596923828125	1099.292602539062	188.2500762939453	-1095.780029296875	873.2114868164062	163.6778869628906	-1154.713500976562	863.1647338867188	104.6451721191406	-1164.619262695312	1005.04296875	95.5804443359375	-1085.856079101562	685.2101440429688	179.4216918945312	-1123.496704101562	782.8406372070312	107.6844940185547	-1073.893432617188	790.1277465820312	158.0289611816406	-1216.321166992188	1447.438842773438	556.8231811523438	-1234.35302734375	1379.528686523438	618.3064575195312	-1280.101196289062	1117.583374023438	645.8031005859375	-1253.96240234375	1094.949829101562	551.9542236328125	-1130.280883789062	867.2347412109375	619.7212524414062	-1205.866333007812	849.7382202148438	661.8057250976562	-1269.009399414062	1036.00146484375	654.1248168945312	-1118.740234375	680.3126220703125	598.635986328125	-1103.534912109375	768.3488159179688	619.451171875	-1165.044555664062	762.0807495117188	665.8597412109375	-1232.099731445312	1667.209594726562	329.182373046875	-1049.377563476562	1692.475830078125	441.5675659179688	-1056.2783203125	1694.358764648438	315.9174499511719	-1216.24658203125	1657.86572265625	466.2936401367188	-1220.186157226562	960.1326293945312	214.0707855224609	-1245.2265625	961.573486328125	558.0360717773438	-1121.293579101562	977.7863159179688	534.894775390625	-1106.716552734375	968.6260986328125	265.151611328125	-1137.292114257812	496.4747314453125	254.3749084472656	-1169.449340820312	637.7070922851562	218.5479583740234	-1312.329711914062	56.80932235717773	218.4217529296875	-1232.381469726562	264.1448059082031	219.7847900390625	-1107.248779296875	46.64025115966797	206.8902282714844	-1151.957885742188	43.51354598999023	264.7765197753906	-1213.333862304688	46.20823287963867	171.4381561279297	-1359.211181640625	50.92499542236328	298.6712646484375	-1166.986083984375	514.5938720703125	519.723388671875	-1157.784057617188	783.4993286132812	559.0394287109375	-1302.831665039062	43.07246017456055	502.0341491699219	-1195.59619140625	390.5503234863281	522.9948120117188	-1087.106323242188	49.94905090332031	476.2184753417969	-1144.196533203125	51.93610763549805	433.0191040039062	-1181.335205078125	51.2460823059082	522.7236938476562	-1346.379638671875	42.73820495605469	444.3160400390625	
